<svg width="226" height="30" viewBox="0 0 226 30" fill="none" xmlns="http://www.w3.org/2000/svg">
<g clip-path="url(#clip0_2020_3)">
<path d="M12 16C12.5523 16 13 15.5523 13 15C13 14.4477 12.5523 14 12 14C11.4477 14 11 14.4477 11 15C11 15.5523 11.4477 16 12 16Z" fill="white"/>
<path d="M22.957 10.1201C22.8603 9.9053 22.6328 9.78661 22.3955 9.83447C22.2836 9.85849 22.1833 9.92017 22.1113 10.0092C22.0393 10.0982 22 10.2093 22 10.3238V17C22 17.1314 21.9463 17.2603 21.8535 17.3535L20.0605 19.1465C19.8652 19.3418 19.8652 19.6582 20.0605 19.8535L20.3535 20.1465C20.4482 20.2412 20.5 20.3667 20.5 20.5C20.5 20.6333 20.4482 20.7588 20.3535 20.8536L17.3535 23.8536C17.164 24.042 16.8359 24.042 16.6465 23.8536L16.3535 23.5606C16.1582 23.3653 15.8418 23.3653 15.6465 23.5606L15.3535 23.8536C15.1641 24.042 14.8359 24.042 14.6465 23.8536C14.5518 23.7588 14.5 23.6333 14.5 23.5C14.5 23.3667 14.5518 23.2412 14.6465 23.1465L14.9395 22.8535C15.1348 22.6582 15.1348 22.3418 14.9395 22.1465L14.6465 21.8535C14.5518 21.7588 14.5 21.6333 14.5 21.5C14.5 21.3667 14.5518 21.2412 14.6465 21.1465L17.6465 18.1465C17.836 17.958 18.1641 17.958 18.3535 18.1465L18.6465 18.4395C18.8418 18.6348 19.1582 18.6348 19.3535 18.4395L20.8535 16.9395C20.9473 16.8457 21 16.7188 21 16.5859V3.50002C21 3.43434 20.9871 3.3693 20.962 3.30862C20.9369 3.24793 20.9001 3.19279 20.8536 3.14636C20.8072 3.09992 20.7521 3.06309 20.6914 3.03797C20.6307 3.01286 20.5657 2.99996 20.5 3C20.4343 2.99996 20.3693 3.01286 20.3086 3.03797C20.2479 3.06309 20.1928 3.09992 20.1463 3.14636C20.0999 3.19279 20.0631 3.24793 20.0379 3.30862C20.0128 3.3693 19.9999 3.43434 20 3.50002V6.07594C17.8066 4.10948 14.9537 3 12 3C5.3828 3 0 8.38331 0 15C0 21.6167 5.3828 27 12 27C18.6172 27 24 21.6167 24 15C24 13.314 23.6494 11.6723 22.957 10.1201ZM5.97952 9.50002C5.91404 9.50006 5.84919 9.48719 5.78869 9.46214C5.7282 9.43708 5.67324 9.40033 5.62697 9.354C5.43066 9.15919 5.43066 8.84278 5.625 8.64698C7.32619 6.93994 9.58983 6 12 6C12.0657 5.99996 12.1307 6.01286 12.1914 6.03797C12.2521 6.06309 12.3072 6.09992 12.3537 6.14635C12.4001 6.19279 12.4369 6.24793 12.462 6.30862C12.4872 6.3693 12.5001 6.43434 12.5 6.50002C12.5001 6.56569 12.4872 6.63073 12.462 6.69141C12.4369 6.7521 12.4001 6.80724 12.3537 6.85368C12.3072 6.90012 12.2521 6.93694 12.1914 6.96206C12.1307 6.98717 12.0657 7.00007 12 7.00003C9.85837 7.00003 7.8457 7.83548 6.33398 9.35306C6.28752 9.39973 6.23227 9.43674 6.17144 9.46196C6.1106 9.48719 6.04537 9.50012 5.97952 9.50002ZM6.99998 15C6.99998 12.2431 9.24314 9.99998 12 9.99998C14.7569 9.99998 17 12.2432 17 15C17 17.7568 14.7569 20 12 20C9.24314 20 6.99998 17.7569 6.99998 15Z" fill="white"/>
</g>
<path d="M34.1644 6.04545H36.6871L42.619 20.5341H42.8235L48.7553 6.04545H51.2781V23.5H49.3008V10.2386H49.1303L43.6758 23.5H41.7667L36.3121 10.2386H36.1417V23.5H34.1644V6.04545ZM63.4933 18.1477V10.4091H65.5046V23.5H63.4933V21.2841H63.3569C63.0501 21.9489 62.5728 22.5142 61.9251 22.9801C61.2773 23.4403 60.4592 23.6705 59.4705 23.6705C58.6523 23.6705 57.9251 23.4915 57.2887 23.1335C56.6523 22.7699 56.1523 22.2244 55.7887 21.4972C55.4251 20.7642 55.2433 19.8409 55.2433 18.7273V10.4091H57.2546V18.5909C57.2546 19.5455 57.5217 20.3068 58.0558 20.875C58.5955 21.4432 59.283 21.7273 60.1183 21.7273C60.6183 21.7273 61.1268 21.5994 61.6438 21.3438C62.1665 21.0881 62.604 20.696 62.9563 20.1676C63.3143 19.6392 63.4933 18.9659 63.4933 18.1477ZM78.4613 13.3409L76.6545 13.8523C76.5408 13.5511 76.3732 13.2585 76.1516 12.9744C75.9357 12.6847 75.6403 12.446 75.2653 12.2585C74.8903 12.071 74.4102 11.9773 73.8249 11.9773C73.0238 11.9773 72.3562 12.1619 71.8221 12.5312C71.2937 12.8949 71.0295 13.358 71.0295 13.9205C71.0295 14.4205 71.2113 14.8153 71.5749 15.1051C71.9386 15.3949 72.5067 15.6364 73.2795 15.8295L75.2227 16.3068C76.3931 16.5909 77.2653 17.0256 77.8391 17.6108C78.413 18.1903 78.6999 18.9375 78.6999 19.8523C78.6999 20.6023 78.484 21.2727 78.0522 21.8636C77.6261 22.4545 77.0295 22.9205 76.2624 23.2614C75.4954 23.6023 74.6033 23.7727 73.5863 23.7727C72.2511 23.7727 71.146 23.483 70.271 22.9034C69.396 22.3239 68.842 21.4773 68.609 20.3636L70.5181 19.8864C70.6999 20.5909 71.0437 21.1193 71.5494 21.4716C72.0607 21.8239 72.7283 22 73.5522 22C74.4897 22 75.234 21.8011 75.7852 21.4034C76.342 21 76.6204 20.517 76.6204 19.9545C76.6204 19.5 76.4613 19.1193 76.1431 18.8125C75.8249 18.5 75.3363 18.267 74.6772 18.1136L72.4954 17.6023C71.2965 17.3182 70.4158 16.8778 69.8533 16.2812C69.2965 15.679 69.0181 14.9261 69.0181 14.0227C69.0181 13.2841 69.2255 12.6307 69.6403 12.0625C70.0607 11.4943 70.6317 11.0483 71.3533 10.7244C72.0806 10.4006 72.9045 10.2386 73.8249 10.2386C75.1204 10.2386 76.1374 10.5227 76.8761 11.0909C77.6204 11.6591 78.1488 12.4091 78.4613 13.3409ZM81.7276 23.5V10.4091H83.739V23.5H81.7276ZM82.7504 8.22727C82.3583 8.22727 82.0202 8.09375 81.7362 7.8267C81.4577 7.55966 81.3185 7.23864 81.3185 6.86364C81.3185 6.48864 81.4577 6.16761 81.7362 5.90057C82.0202 5.63352 82.3583 5.5 82.7504 5.5C83.1424 5.5 83.4776 5.63352 83.756 5.90057C84.0401 6.16761 84.1822 6.48864 84.1822 6.86364C84.1822 7.23864 84.0401 7.55966 83.756 7.8267C83.4776 8.09375 83.1424 8.22727 82.7504 8.22727ZM92.7411 23.7727C91.5138 23.7727 90.457 23.483 89.5707 22.9034C88.6843 22.3239 88.0025 21.5256 87.5252 20.5085C87.0479 19.4915 86.8093 18.3295 86.8093 17.0227C86.8093 15.6932 87.0536 14.5199 87.5423 13.5028C88.0366 12.4801 88.7241 11.6818 89.6048 11.108C90.4911 10.5284 91.5252 10.2386 92.707 10.2386C93.6275 10.2386 94.457 10.4091 95.1957 10.75C95.9343 11.0909 96.5394 11.5682 97.011 12.1818C97.4826 12.7955 97.7752 13.5114 97.8889 14.3295H95.8775C95.7241 13.733 95.3832 13.2045 94.8548 12.7443C94.332 12.2784 93.6275 12.0455 92.7411 12.0455C91.957 12.0455 91.2695 12.25 90.6786 12.6591C90.0934 13.0625 89.636 13.6335 89.3065 14.3722C88.9826 15.1051 88.8207 15.9659 88.8207 16.9545C88.8207 17.9659 88.9798 18.8466 89.2979 19.5966C89.6218 20.3466 90.0763 20.929 90.6616 21.3438C91.2525 21.7585 91.9457 21.9659 92.7411 21.9659C93.2638 21.9659 93.7383 21.875 94.1644 21.6932C94.5906 21.5114 94.9513 21.25 95.2468 20.9091C95.5423 20.5682 95.7525 20.1591 95.8775 19.6818H97.8889C97.7752 20.4545 97.494 21.1506 97.0451 21.7699C96.6019 22.3835 96.0138 22.8722 95.2809 23.2358C94.5536 23.5938 93.707 23.7727 92.7411 23.7727ZM104.681 23.8068C103.852 23.8068 103.099 23.6506 102.423 23.3381C101.747 23.0199 101.21 22.5625 100.812 21.9659C100.414 21.3636 100.216 20.6364 100.216 19.7841C100.216 19.0341 100.363 18.4261 100.659 17.9602C100.954 17.4886 101.349 17.1193 101.843 16.8523C102.338 16.5852 102.883 16.3864 103.48 16.2557C104.082 16.1193 104.687 16.0114 105.295 15.9318C106.091 15.8295 106.735 15.7528 107.23 15.7017C107.73 15.6449 108.093 15.5511 108.321 15.4205C108.554 15.2898 108.67 15.0625 108.67 14.7386V14.6705C108.67 13.8295 108.44 13.1761 107.98 12.7102C107.525 12.2443 106.835 12.0114 105.909 12.0114C104.949 12.0114 104.196 12.2216 103.65 12.642C103.105 13.0625 102.721 13.5114 102.5 13.9886L100.591 13.3068C100.931 12.5114 101.386 11.892 101.954 11.4489C102.528 11 103.153 10.6875 103.829 10.5114C104.511 10.3295 105.181 10.2386 105.841 10.2386C106.261 10.2386 106.744 10.2898 107.289 10.392C107.841 10.4886 108.372 10.6903 108.883 10.9972C109.4 11.304 109.829 11.767 110.17 12.3864C110.511 13.0057 110.681 13.8352 110.681 14.875V23.5H108.67V21.7273H108.568C108.431 22.0114 108.204 22.3153 107.886 22.6392C107.568 22.9631 107.145 23.2386 106.616 23.4659C106.088 23.6932 105.443 23.8068 104.681 23.8068ZM104.988 22C105.784 22 106.454 21.8438 107 21.5312C107.551 21.2188 107.966 20.8153 108.244 20.321C108.528 19.8267 108.67 19.3068 108.67 18.7614V16.9205C108.585 17.0227 108.397 17.1165 108.108 17.2017C107.824 17.2812 107.494 17.3523 107.119 17.4148C106.75 17.4716 106.389 17.5227 106.037 17.5682C105.69 17.608 105.409 17.642 105.193 17.6705C104.67 17.7386 104.181 17.8494 103.727 18.0028C103.278 18.1506 102.914 18.375 102.636 18.6761C102.363 18.9716 102.227 19.375 102.227 19.8864C102.227 20.5852 102.485 21.1136 103.002 21.4716C103.525 21.8239 104.187 22 104.988 22ZM128.671 11.5H126.557C126.432 10.892 126.213 10.358 125.901 9.89773C125.594 9.4375 125.219 9.05114 124.776 8.73864C124.338 8.42045 123.853 8.18182 123.319 8.02273C122.784 7.86364 122.228 7.78409 121.648 7.78409C120.591 7.78409 119.634 8.05114 118.776 8.58523C117.924 9.11932 117.245 9.90625 116.739 10.946C116.239 11.9858 115.989 13.2614 115.989 14.7727C115.989 16.2841 116.239 17.5597 116.739 18.5994C117.245 19.6392 117.924 20.4261 118.776 20.9602C119.634 21.4943 120.591 21.7614 121.648 21.7614C122.228 21.7614 122.784 21.6818 123.319 21.5227C123.853 21.3636 124.338 21.1278 124.776 20.8153C125.219 20.4972 125.594 20.108 125.901 19.6477C126.213 19.1818 126.432 18.6477 126.557 18.0455H128.671C128.512 18.9375 128.222 19.7358 127.801 20.4403C127.381 21.1449 126.858 21.7443 126.233 22.2386C125.608 22.7273 124.907 23.0994 124.128 23.3551C123.355 23.6108 122.529 23.7386 121.648 23.7386C120.159 23.7386 118.836 23.375 117.676 22.6477C116.517 21.9205 115.605 20.8864 114.941 19.5455C114.276 18.2045 113.944 16.6136 113.944 14.7727C113.944 12.9318 114.276 11.3409 114.941 10C115.605 8.65909 116.517 7.625 117.676 6.89773C118.836 6.17045 120.159 5.80682 121.648 5.80682C122.529 5.80682 123.355 5.93466 124.128 6.19034C124.907 6.44602 125.608 6.82102 126.233 7.31534C126.858 7.80398 127.381 8.40057 127.801 9.10511C128.222 9.80398 128.512 10.6023 128.671 11.5ZM137.132 23.7727C135.95 23.7727 134.913 23.4915 134.021 22.929C133.135 22.3665 132.441 21.5795 131.941 20.5682C131.447 19.5568 131.2 18.375 131.2 17.0227C131.2 15.6591 131.447 14.4687 131.941 13.4517C132.441 12.4347 133.135 11.6449 134.021 11.0824C134.913 10.5199 135.95 10.2386 137.132 10.2386C138.314 10.2386 139.348 10.5199 140.234 11.0824C141.126 11.6449 141.819 12.4347 142.314 13.4517C142.814 14.4687 143.064 15.6591 143.064 17.0227C143.064 18.375 142.814 19.5568 142.314 20.5682C141.819 21.5795 141.126 22.3665 140.234 22.929C139.348 23.4915 138.314 23.7727 137.132 23.7727ZM137.132 21.9659C138.029 21.9659 138.768 21.7358 139.348 21.2756C139.927 20.8153 140.356 20.2102 140.635 19.4602C140.913 18.7102 141.052 17.8977 141.052 17.0227C141.052 16.1477 140.913 15.3324 140.635 14.5767C140.356 13.821 139.927 13.2102 139.348 12.7443C138.768 12.2784 138.029 12.0455 137.132 12.0455C136.234 12.0455 135.495 12.2784 134.916 12.7443C134.336 13.2102 133.907 13.821 133.629 14.5767C133.35 15.3324 133.211 16.1477 133.211 17.0227C133.211 17.8977 133.35 18.7102 133.629 19.4602C133.907 20.2102 134.336 20.8153 134.916 21.2756C135.495 21.7358 136.234 21.9659 137.132 21.9659ZM148.145 15.625V23.5H146.134V10.4091H148.077V12.4545H148.248C148.554 11.7898 149.02 11.2557 149.645 10.8523C150.27 10.4432 151.077 10.2386 152.066 10.2386C152.952 10.2386 153.728 10.4205 154.392 10.7841C155.057 11.142 155.574 11.6875 155.944 12.4205C156.313 13.1477 156.498 14.0682 156.498 15.1818V23.5H154.486V15.3182C154.486 14.2898 154.219 13.4886 153.685 12.9148C153.151 12.3352 152.418 12.0455 151.486 12.0455C150.844 12.0455 150.27 12.1847 149.765 12.4631C149.265 12.7415 148.87 13.1477 148.58 13.6818C148.29 14.2159 148.145 14.8636 148.145 15.625ZM170.409 10.4091L165.568 23.5H163.522L158.681 10.4091H160.863L164.477 20.8409H164.613L168.227 10.4091H170.409ZM178.083 23.7727C176.822 23.7727 175.734 23.4943 174.819 22.9375C173.91 22.375 173.208 21.5909 172.714 20.5852C172.225 19.5739 171.981 18.3977 171.981 17.0568C171.981 15.7159 172.225 14.5341 172.714 13.5114C173.208 12.483 173.896 11.6818 174.777 11.108C175.663 10.5284 176.697 10.2386 177.879 10.2386C178.561 10.2386 179.234 10.3523 179.899 10.5795C180.564 10.8068 181.169 11.1761 181.714 11.6875C182.26 12.1932 182.694 12.8636 183.018 13.6989C183.342 14.5341 183.504 15.5625 183.504 16.7841V17.6364H173.413V15.8977H181.458C181.458 15.1591 181.311 14.5 181.015 13.9205C180.725 13.3409 180.311 12.8835 179.771 12.5483C179.237 12.2131 178.606 12.0455 177.879 12.0455C177.078 12.0455 176.385 12.2443 175.799 12.642C175.22 13.0341 174.774 13.5455 174.461 14.1761C174.149 14.8068 173.993 15.483 173.993 16.2045V17.3636C173.993 18.3523 174.163 19.1903 174.504 19.8778C174.85 20.5597 175.331 21.0795 175.944 21.4375C176.558 21.7898 177.271 21.9659 178.083 21.9659C178.612 21.9659 179.089 21.892 179.515 21.7443C179.947 21.5909 180.319 21.3636 180.632 21.0625C180.944 20.7557 181.186 20.375 181.356 19.9205L183.299 20.4659C183.095 21.125 182.751 21.7045 182.268 22.2045C181.785 22.6989 181.189 23.0852 180.478 23.3636C179.768 23.6364 178.97 23.7727 178.083 23.7727ZM186.564 23.5V10.4091H188.507V12.3864H188.643C188.882 11.7386 189.314 11.2131 189.939 10.8097C190.564 10.4062 191.268 10.2045 192.052 10.2045C192.2 10.2045 192.385 10.2074 192.606 10.2131C192.828 10.2187 192.995 10.2273 193.109 10.2386V12.2841C193.041 12.267 192.885 12.2415 192.64 12.2074C192.402 12.1676 192.149 12.1477 191.882 12.1477C191.245 12.1477 190.677 12.2812 190.177 12.5483C189.683 12.8097 189.291 13.1733 189.001 13.6392C188.717 14.0994 188.575 14.625 188.575 15.2159V23.5H186.564ZM202.007 10.4091V12.1136H195.223V10.4091H202.007ZM197.2 7.27273H199.211V19.75C199.211 20.3182 199.294 20.7443 199.458 21.0284C199.629 21.3068 199.845 21.4943 200.106 21.5909C200.373 21.6818 200.654 21.7273 200.95 21.7273C201.172 21.7273 201.353 21.7159 201.495 21.6932C201.637 21.6648 201.751 21.642 201.836 21.625L202.245 23.4318C202.109 23.483 201.919 23.5341 201.674 23.5852C201.43 23.642 201.12 23.6705 200.745 23.6705C200.177 23.6705 199.62 23.5483 199.075 23.304C198.535 23.0597 198.086 22.6875 197.728 22.1875C197.376 21.6875 197.2 21.0568 197.2 20.2955V7.27273ZM210.38 23.7727C209.119 23.7727 208.031 23.4943 207.116 22.9375C206.207 22.375 205.505 21.5909 205.011 20.5852C204.522 19.5739 204.278 18.3977 204.278 17.0568C204.278 15.7159 204.522 14.5341 205.011 13.5114C205.505 12.483 206.193 11.6818 207.074 11.108C207.96 10.5284 208.994 10.2386 210.176 10.2386C210.858 10.2386 211.531 10.3523 212.196 10.5795C212.86 10.8068 213.466 11.1761 214.011 11.6875C214.556 12.1932 214.991 12.8636 215.315 13.6989C215.639 14.5341 215.801 15.5625 215.801 16.7841V17.6364H205.71V15.8977H213.755C213.755 15.1591 213.608 14.5 213.312 13.9205C213.022 13.3409 212.608 12.8835 212.068 12.5483C211.534 12.2131 210.903 12.0455 210.176 12.0455C209.375 12.0455 208.681 12.2443 208.096 12.642C207.517 13.0341 207.071 13.5455 206.758 14.1761C206.446 14.8068 206.289 15.483 206.289 16.2045V17.3636C206.289 18.3523 206.46 19.1903 206.801 19.8778C207.147 20.5597 207.627 21.0795 208.241 21.4375C208.855 21.7898 209.568 21.9659 210.38 21.9659C210.909 21.9659 211.386 21.892 211.812 21.7443C212.244 21.5909 212.616 21.3636 212.929 21.0625C213.241 20.7557 213.483 20.375 213.653 19.9205L215.596 20.4659C215.392 21.125 215.048 21.7045 214.565 22.2045C214.082 22.6989 213.485 23.0852 212.775 23.3636C212.065 23.6364 211.267 23.7727 210.38 23.7727ZM218.86 23.5V10.4091H220.804V12.3864H220.94C221.179 11.7386 221.61 11.2131 222.235 10.8097C222.86 10.4062 223.565 10.2045 224.349 10.2045C224.497 10.2045 224.681 10.2074 224.903 10.2131C225.125 10.2187 225.292 10.2273 225.406 10.2386V12.2841C225.338 12.267 225.181 12.2415 224.937 12.2074C224.699 12.1676 224.446 12.1477 224.179 12.1477C223.542 12.1477 222.974 12.2812 222.474 12.5483C221.98 12.8097 221.588 13.1733 221.298 13.6392C221.014 14.0994 220.872 14.625 220.872 15.2159V23.5H218.86Z" fill="white"/>
<defs>
<clipPath id="clip0_2020_3">
<rect width="24" height="24" fill="white" transform="translate(0 3)"/>
</clipPath>
</defs>
</svg>
