<svg width="24" height="24" viewBox="0 0 24 24" fill="none" xmlns="http://www.w3.org/2000/svg">
<g clip-path="url(#clip0_2009_102)">
<rect x="0.0351562" y="0.0395508" width="24" height="23.9994" rx="11.9997" fill="white"/>
<path d="M12.0351 0.0395508C5.40785 0.0395508 0.0351562 5.4121 0.0351562 12.0393C0.0351562 18.6669 5.40785 24.039 12.0351 24.039C18.663 24.039 24.0352 18.6669 24.0352 12.0393C24.0352 5.41253 18.663 0.040124 12.0349 0.040124L12.0351 0.0395508ZM17.5382 17.3467C17.3232 17.6992 16.8618 17.811 16.5093 17.5946C13.6919 15.8736 10.145 15.4839 5.96799 16.4382C5.56547 16.5299 5.16425 16.2777 5.07254 15.875C4.9804 15.4724 5.2316 15.0712 5.63511 14.9795C10.2062 13.9347 14.1272 14.3848 17.2903 16.3178C17.6428 16.5342 17.7546 16.9942 17.5382 17.3467ZM19.0069 14.0788C18.7361 14.5195 18.1601 14.6585 17.7202 14.3876C14.4946 12.4046 9.57772 11.8304 5.7625 12.9885C5.26771 13.138 4.74511 12.8591 4.59494 12.3652C4.44591 11.8704 4.72491 11.3488 5.21884 11.1983C9.57686 9.87601 14.9947 10.5165 18.6989 12.7928C19.1388 13.0636 19.2778 13.6396 19.0069 14.079V14.0788ZM19.133 10.6765C15.2655 8.3793 8.88461 8.16809 5.19205 9.28879C4.59909 9.46863 3.97203 9.13389 3.79234 8.54094C3.61265 7.9477 3.9471 7.32107 4.54048 7.14081C8.77929 5.85402 15.8258 6.10264 20.2785 8.74599C20.813 9.06253 20.9879 9.75135 20.6712 10.284C20.3559 10.8173 19.6652 10.9931 19.1336 10.6765H19.133Z" fill="#1ED760"/>
</g>
<defs>
<clipPath id="clip0_2009_102">
<rect width="24" height="24" fill="white"/>
</clipPath>
</defs>
</svg>
